<svg width="42" height="42" viewBox="0 0 42 42" fill="none" xmlns="http://www.w3.org/2000/svg">
<path d="M6.60669 25.3313C6.03787 24.7625 5.58665 24.0872 5.2788 23.3441C4.97095 22.6009 4.8125 21.8044 4.8125 21C4.8125 20.1956 4.97095 19.3991 5.2788 18.6559C5.58665 17.9128 6.03787 17.2375 6.60669 16.6687L16.6692 6.60625C17.238 6.03742 17.9132 5.5862 18.6564 5.27835C19.3995 4.97051 20.196 4.81206 21.0004 4.81206C21.8048 4.81206 22.6014 4.97051 23.3445 5.27835C24.0877 5.5862 24.7629 6.03742 25.3317 6.60625L35.3942 16.6687C35.963 17.2375 36.4142 17.9128 36.7221 18.6559C37.0299 19.3991 37.1884 20.1956 37.1884 21C37.1884 21.8044 37.0299 22.6009 36.7221 23.3441C36.4142 24.0872 35.963 24.7625 35.3942 25.3313L25.3317 35.3937C24.7629 35.9626 24.0877 36.4138 23.3445 36.7216C22.6014 37.0295 21.8048 37.1879 21.0004 37.1879C20.196 37.1879 19.3995 37.0295 18.6564 36.7216C17.9132 36.4138 17.238 35.9626 16.6692 35.3937L6.60669 25.3313Z" stroke="#F31260" stroke-width="2.625" stroke-linecap="round" stroke-linejoin="round"/>
<path d="M21 21.7612V13.0112" stroke="#F31260" stroke-width="2.625" stroke-linecap="round"/>
<path d="M21 25.48C22.2081 25.48 23.1875 26.4594 23.1875 27.6675C23.1875 28.8756 22.2081 29.855 21 29.855C19.7919 29.855 18.8125 28.8756 18.8125 27.6675C18.8125 26.4594 19.7919 25.48 21 25.48Z" fill="#F31260"/>
</svg>
