<svg width="42" height="42" viewBox="0 0 42 42" fill="none" xmlns="http://www.w3.org/2000/svg">
<path fill-rule="evenodd" clip-rule="evenodd" d="M21 38.5C11.3348 38.5 3.5 30.6652 3.5 21C3.5 11.3348 11.3348 3.5 21 3.5C30.6652 3.5 38.5 11.3348 38.5 21C38.5 30.6652 30.6652 38.5 21 38.5ZM21 36.4C25.0843 36.4 29.0014 34.7775 31.8894 31.8894C34.7775 29.0014 36.4 25.0843 36.4 21C36.4 16.9157 34.7775 12.9986 31.8894 10.1106C29.0014 7.22249 25.0843 5.6 21 5.6C16.9157 5.6 12.9986 7.22249 10.1106 10.1106C7.22249 12.9986 5.6 16.9157 5.6 21C5.6 25.0843 7.22249 29.0014 10.1106 31.8894C12.9986 34.7775 16.9157 36.4 21 36.4ZM18.949 25.4765L29.1147 15.3125L30.5988 16.7983L20.1862 27.2108C19.8581 27.5388 19.413 27.7231 18.949 27.7231C18.485 27.7231 18.0399 27.5388 17.7118 27.2108L12.25 21.7455L13.7358 20.2598L18.9508 25.4748L18.949 25.4765Z" fill="#17C964"/>
</svg>
