<svg width="42" height="42" viewBox="0 0 42 42" fill="none" xmlns="http://www.w3.org/2000/svg">
<path d="M36.75 7H5.25C4.78587 7 4.34075 7.18437 4.01256 7.51256C3.68437 7.84075 3.5 8.28587 3.5 8.75V33.25C3.5 33.7141 3.68437 34.1592 4.01256 34.4874C4.34075 34.8156 4.78587 35 5.25 35H36.75C37.2141 35 37.6592 34.8156 37.9874 34.4874C38.3156 34.1592 38.5 33.7141 38.5 33.25V8.75C38.5 8.28587 38.3156 7.84075 37.9874 7.51256C37.6592 7.18437 37.2141 7 36.75 7Z" stroke="#006FEE" stroke-width="3.5"/>
<path d="M21 14.875V27.125M28 21V27.125M14 19.25V27.125" stroke="#006FEE" stroke-width="3.5" stroke-linecap="round"/>
</svg>
